<svg xmlns="http://www.w3.org/2000/svg" viewBox="0 0 32 32">
  <!-- Background gradient -->
  <defs>
    <linearGradient id="bg-gradient" x1="0%" y1="0%" x2="100%" y2="100%">
      <stop offset="0%" style="stop-color:#6366f1;stop-opacity:1" />
      <stop offset="100%" style="stop-color:#8b5cf6;stop-opacity:1" />
    </linearGradient>
  </defs>
  
  <!-- Background square with rounded corners -->
  <rect width="32" height="32" rx="6" fill="url(#bg-gradient)"/>
  
  <!-- Letter D -->
  <path d="M 8 9 L 12 9 Q 18 9 18 16 Q 18 23 12 23 L 8 23 Z M 10.5 11.5 L 10.5 20.5 L 12 20.5 Q 15.5 20.5 15.5 16 Q 15.5 11.5 12 11.5 Z" fill="white"/>
  
  <!-- Letter D (second) -->
  <path d="M 19 9 L 23 9 Q 29 9 29 16 Q 29 23 23 23 L 19 23 Z M 21.5 11.5 L 21.5 20.5 L 23 20.5 Q 26.5 20.5 26.5 16 Q 26.5 11.5 23 11.5 Z" fill="white" opacity="0.9"/>
</svg>